<svg xmlns="http://www.w3.org/2000/svg" viewBox="0 0 489.24 315.44" width="489.24" height="315.44">
  <g transform="translate(7.19,87.97)">
    <path d="M8.512 -78.4V0.0H24.864V-78.4ZM35.168 0.0Q47.488 0.0 56.728 -4.816Q65.968 -9.632 71.12 -18.424Q76.272 -27.216 76.272 -39.2Q76.272 -51.184000000000005 71.12 -59.976Q65.968 -68.768 56.728 -73.584Q47.488 -78.4 35.168 -78.4H18.816V-63.84H34.608000000000004Q39.76 -63.84 44.352000000000004 -62.44Q48.944 -61.04 52.416 -58.016000000000005Q55.888 -54.992000000000004 57.848 -50.344Q59.808 -45.696 59.808 -39.2Q59.808 -32.704 57.848 -28.056Q55.888 -23.408 52.416 -20.384Q48.944 -17.36 44.352000000000004 -15.96Q39.76 -14.56 34.608000000000004 -14.56H18.816V0.0Z" fill="#111111"/> <path d="M102.33600000000001 -39.2Q102.33600000000001 -46.704 105.47200000000001 -52.528000000000006Q108.608 -58.352000000000004 114.096 -61.712Q119.584 -65.072 126.864 -65.072Q134.25600000000003 -65.072 139.74400000000003 -61.712Q145.23200000000003 -58.352000000000004 148.25600000000003 -52.528000000000006Q151.28000000000003 -46.704 151.28000000000003 -39.2Q151.28000000000003 -31.696 148.20000000000002 -25.872Q145.12 -20.048000000000002 139.632 -16.688000000000002Q134.144 -13.328 126.864 -13.328Q119.584 -13.328 114.096 -16.688000000000002Q108.608 -20.048000000000002 105.47200000000001 -25.872Q102.33600000000001 -31.696 102.33600000000001 -39.2ZM85.424 -39.2Q85.424 -30.352 88.44800000000001 -22.792Q91.47200000000001 -15.232000000000001 97.072 -9.632000000000001Q102.67200000000001 -4.032 110.232 -0.952Q117.792 2.128 126.864 2.128Q135.936 2.128 143.496 -0.952Q151.056 -4.032 156.60000000000002 -9.632000000000001Q162.144 -15.232000000000001 165.22400000000002 -22.792Q168.30400000000003 -30.352 168.30400000000003 -39.2Q168.30400000000003 -48.160000000000004 165.22400000000002 -55.608000000000004Q162.144 -63.056000000000004 156.488 -68.544Q150.832 -74.032 143.328 -77.0Q135.824 -79.968 126.864 -79.968Q118.01600000000002 -79.968 110.45600000000002 -77.0Q102.89600000000002 -74.032 97.29600000000002 -68.544Q91.69600000000001 -63.056000000000004 88.56 -55.608000000000004Q85.424 -48.160000000000004 85.424 -39.2Z" fill="#111111"/> <path d="M194.81600000000003 -39.2Q194.81600000000003 -47.04 198.34400000000005 -52.751999999999995Q201.87200000000004 -58.464 207.58400000000006 -61.544Q213.29600000000005 -64.624 220.01600000000002 -64.624Q225.61600000000004 -64.624 229.98400000000004 -63.168Q234.35200000000003 -61.712 237.88000000000002 -59.248000000000005Q241.40800000000002 -56.784 243.98400000000004 -53.872V-71.904Q239.16800000000003 -75.712 233.51200000000006 -77.84Q227.85600000000005 -79.968 219.23200000000003 -79.968Q210.27200000000005 -79.968 202.60000000000002 -77.05600000000001Q194.92800000000003 -74.144 189.27200000000005 -68.656Q183.61600000000004 -63.168 180.53600000000006 -55.72Q177.45600000000005 -48.272 177.45600000000005 -39.2Q177.45600000000005 -30.128 180.53600000000006 -22.68Q183.61600000000004 -15.232000000000001 189.27200000000005 -9.744Q194.92800000000003 -4.256 202.60000000000002 -1.344Q210.27200000000005 1.568 219.23200000000003 1.568Q227.85600000000005 1.568 233.51200000000006 -0.56Q239.16800000000003 -2.688 243.98400000000004 -6.496V-24.528000000000002Q241.40800000000002 -21.616 237.88000000000002 -19.152Q234.35200000000003 -16.688 229.98400000000004 -15.232Q225.61600000000004 -13.776 220.01600000000002 -13.776Q213.29600000000005 -13.776 207.58400000000006 -16.856Q201.87200000000004 -19.936 198.34400000000005 -25.704Q194.81600000000003 -31.472 194.81600000000003 -39.2Z" fill="#111111"/> <path d="M253.24800000000002 -63.952H274.30400000000003V0.0H290.32000000000005V-63.952H311.488V-78.4H253.24800000000002Z" fill="#111111"/> <path d="M334.19200000000006 -39.2Q334.19200000000006 -46.704 337.3280000000001 -52.528000000000006Q340.46400000000006 -58.352000000000004 345.95200000000006 -61.712Q351.44000000000005 -65.072 358.72 -65.072Q366.1120000000001 -65.072 371.6000000000001 -61.712Q377.0880000000001 -58.352000000000004 380.1120000000001 -52.528000000000006Q383.1360000000001 -46.704 383.1360000000001 -39.2Q383.1360000000001 -31.696 380.05600000000004 -25.872Q376.97600000000006 -20.048000000000002 371.48800000000006 -16.688000000000002Q366.00000000000006 -13.328 358.72 -13.328Q351.44000000000005 -13.328 345.95200000000006 -16.688000000000002Q340.46400000000006 -20.048000000000002 337.3280000000001 -25.872Q334.19200000000006 -31.696 334.19200000000006 -39.2ZM317.28000000000003 -39.2Q317.28000000000003 -30.352 320.30400000000003 -22.792Q323.32800000000003 -15.232000000000001 328.928 -9.632000000000001Q334.528 -4.032 342.088 -0.952Q349.648 2.128 358.72 2.128Q367.79200000000003 2.128 375.35200000000003 -0.952Q382.91200000000003 -4.032 388.456 -9.632000000000001Q394.00000000000006 -15.232000000000001 397.08000000000004 -22.792Q400.1600000000001 -30.352 400.1600000000001 -39.2Q400.1600000000001 -48.160000000000004 397.08000000000004 -55.608000000000004Q394.00000000000006 -63.056000000000004 388.34400000000005 -68.544Q382.68800000000005 -74.032 375.1840000000001 -77.0Q367.68000000000006 -79.968 358.72 -79.968Q349.87200000000007 -79.968 342.31200000000007 -77.0Q334.75200000000007 -74.032 329.15200000000004 -68.544Q323.552 -63.056000000000004 320.41600000000005 -55.608000000000004Q317.28000000000003 -48.160000000000004 317.28000000000003 -39.2Z" fill="#111111"/> <path d="M431.6000000000001 -36.512 455.1200000000001 0.0H474.0480000000001L448.51200000000006 -36.512ZM413.7920000000001 -78.4V0.0H429.8080000000001V-78.4ZM423.53600000000006 -64.736H439.1040000000001Q443.36000000000007 -64.736 446.44000000000005 -63.336Q449.5200000000001 -61.936 451.2000000000001 -59.304Q452.8800000000001 -56.672000000000004 452.8800000000001 -52.976Q452.8800000000001 -49.28 451.2000000000001 -46.647999999999996Q449.5200000000001 -44.016 446.44000000000005 -42.616Q443.36000000000007 -41.216 439.1040000000001 -41.216H423.53600000000006V-28.448H440.1120000000001Q449.4080000000001 -28.448 455.9040000000001 -31.584Q462.4000000000001 -34.72 465.87200000000007 -40.376000000000005Q469.3440000000001 -46.032000000000004 469.3440000000001 -53.424Q469.3440000000001 -60.928000000000004 465.87200000000007 -66.528Q462.4000000000001 -72.128 455.9040000000001 -75.26400000000001Q449.4080000000001 -78.4 440.1120000000001 -78.4H423.53600000000006Z" fill="#111111"/> <path d="M44.2176 42.784000000000006 1.5792 132.272H10.0016L52.64 42.784000000000006Z" fill="#111111"/> <path d="M63.69312 48.25856H83.06464V116.48H88.85504V48.25856H108.22656V42.784000000000006H63.69312Z" fill="#111111"/> <path d="M125.59712 116.48H162.12928V111.00544000000001H125.59712ZM125.59712 48.25856H162.12928V42.784000000000006H125.59712ZM125.59712 78.78976H160.02368V73.3152H125.59712ZM122.544 42.784000000000006V116.48H128.3344V42.784000000000006Z" fill="#111111"/> <path d="M188.6592 91.73920000000001H226.45471999999998L224.55968 86.26464H190.55424ZM207.39903999999999 53.312000000000005 221.92767999999998 88.47552 222.45407999999998 89.84416 233.40319999999997 116.48H239.93055999999999L207.39903999999999 39.94144L174.86751999999998 116.48H181.39488L192.44928 89.42304L193.08095999999998 88.15968000000001Z" fill="#111111"/> <path d="M262.03872 58.154880000000006 287.9376 107.95232 313.83648 58.154880000000006 320.15328 116.48H325.94368L317.416 39.94144L287.9376 96.58208L258.4592 39.94144L249.93151999999998 116.48H255.72191999999998Z" fill="#111111"/> <path d="M6.5520000000000005 207.35904000000002 9.91872 214.59648H11.088000000000001L6.5520000000000005 205.06080000000003L2.016 214.59648H3.18528ZM11.24928 215.04000000000002V216.85440000000003H12.297600000000001V214.05216000000001H0.8064V216.85440000000003H1.9152V215.04000000000002Z" fill="#9a9a9a"/> <path d="M20.491039999999998 210.40320000000003Q20.491039999999998 211.79424000000003 21.116 212.89296000000002Q21.740959999999998 213.99168000000003 22.819519999999997 214.61664000000002Q23.89808 215.24160000000003 25.2488 215.24160000000003Q26.59952 215.24160000000003 27.678079999999998 214.61664000000002Q28.756639999999997 213.99168000000003 29.3816 212.89296000000002Q30.00656 211.79424000000003 30.00656 210.40320000000003Q30.00656 208.99200000000002 29.3816 207.90336000000002Q28.756639999999997 206.81472000000002 27.678079999999998 206.18976000000004Q26.59952 205.56480000000002 25.2488 205.56480000000002Q23.89808 205.56480000000002 22.819519999999997 206.18976000000004Q21.740959999999998 206.81472000000002 21.116 207.90336000000002Q20.491039999999998 208.99200000000002 20.491039999999998 210.40320000000003ZM21.55952 210.40320000000003Q21.55952 209.27424000000002 22.04336 208.40736000000004Q22.5272 207.54048000000003 23.36384 207.04656000000003Q24.20048 206.55264000000003 25.2488 206.55264000000003Q26.29712 206.55264000000003 27.13376 207.04656000000003Q27.970399999999998 207.54048000000003 28.45424 208.41744000000003Q28.93808 209.29440000000002 28.93808 210.40320000000003Q28.93808 211.53216000000003 28.45424 212.39904Q27.970399999999998 213.26592000000002 27.13376 213.75984000000003Q26.29712 214.25376000000003 25.2488 214.25376000000003Q24.20048 214.25376000000003 23.36384 213.75984000000003Q22.5272 213.26592000000002 22.04336 212.39904Q21.55952 211.53216000000003 21.55952 210.40320000000003Z" fill="#9a9a9a"/> <path d="M38.704 205.76640000000003V215.04000000000002H39.75232V205.76640000000003ZM43.723839999999996 205.76640000000003 39.369279999999996 209.59680000000003 44.127039999999994 215.04000000000002H45.4576L40.699839999999995 209.59680000000003L45.07456 205.76640000000003Z" fill="#9a9a9a"/> <path d="M52.68336 205.76640000000003V206.75424H58.12656V205.76640000000003ZM54.8808 206.04864000000003V215.04000000000002H55.92912V206.04864000000003Z" fill="#9a9a9a"/> <path d="M65.51360000000001 210.40320000000003Q65.51360000000001 211.79424000000003 66.13856000000001 212.89296000000002Q66.76352 213.99168000000003 67.84208000000001 214.61664000000002Q68.92064 215.24160000000003 70.27136 215.24160000000003Q71.62208000000001 215.24160000000003 72.70064 214.61664000000002Q73.7792 213.99168000000003 74.40416 212.89296000000002Q75.02912 211.79424000000003 75.02912 210.40320000000003Q75.02912 208.99200000000002 74.40416 207.90336000000002Q73.7792 206.81472000000002 72.70064 206.18976000000004Q71.62208000000001 205.56480000000002 70.27136 205.56480000000002Q68.92064 205.56480000000002 67.84208000000001 206.18976000000004Q66.76352 206.81472000000002 66.13856000000001 207.90336000000002Q65.51360000000001 208.99200000000002 65.51360000000001 210.40320000000003ZM66.58208 210.40320000000003Q66.58208 209.27424000000002 67.06592 208.40736000000004Q67.54976 207.54048000000003 68.38640000000001 207.04656000000003Q69.22304 206.55264000000003 70.27136 206.55264000000003Q71.31968 206.55264000000003 72.15632000000001 207.04656000000003Q72.99296000000001 207.54048000000003 73.47680000000001 208.41744000000003Q73.96064000000001 209.29440000000002 73.96064000000001 210.40320000000003Q73.96064000000001 211.53216000000003 73.47680000000001 212.39904Q72.99296000000001 213.26592000000002 72.15632000000001 213.75984000000003Q71.31968 214.25376000000003 70.27136 214.25376000000003Q69.22304 214.25376000000003 68.38640000000001 213.75984000000003Q67.54976 213.26592000000002 67.06592 212.39904Q66.58208 211.53216000000003 66.58208 210.40320000000003Z" fill="#9a9a9a"/> <path d="M84.77488000000001 219.47520000000003V205.76640000000003H83.72656V219.47520000000003ZM92.69776000000002 210.40320000000003Q92.69776000000002 208.89120000000003 92.10304000000002 207.81264000000002Q91.50832000000001 206.73408 90.49024000000001 206.14944000000003Q89.47216000000002 205.56480000000002 88.22224000000001 205.56480000000002Q87.05296000000001 205.56480000000002 86.16592000000001 206.19984000000002Q85.27888000000002 206.83488000000003 84.78496000000001 207.92352000000002Q84.29104000000001 209.01216000000002 84.29104000000001 210.40320000000003Q84.29104000000001 211.77408000000003 84.78496000000001 212.87280000000004Q85.27888000000002 213.97152000000003 86.16592000000001 214.60656000000003Q87.05296000000001 215.24160000000003 88.22224000000001 215.24160000000003Q89.47216000000002 215.24160000000003 90.49024000000001 214.65696000000003Q91.50832000000001 214.07232000000002 92.10304000000002 212.98368000000002Q92.69776000000002 211.89504000000002 92.69776000000002 210.40320000000003ZM91.64944000000001 210.40320000000003Q91.64944000000001 211.61280000000002 91.16560000000001 212.47968000000003Q90.68176000000001 213.34656 89.87536 213.80016Q89.06896 214.25376000000003 88.08112000000001 214.25376000000003Q87.23440000000001 214.25376000000003 86.46832 213.74976000000004Q85.70224 213.24576000000002 85.23856 212.37888000000004Q84.77488000000001 211.51200000000003 84.77488000000001 210.40320000000003Q84.77488000000001 209.29440000000002 85.23856 208.42752000000002Q85.70224 207.56064 86.46832 207.05664000000002Q87.23440000000001 206.55264000000003 88.08112000000001 206.55264000000003Q89.06896 206.55264000000003 89.87536 207.00624000000002Q90.68176000000001 207.45984 91.16560000000001 208.32672000000002Q91.64944000000001 209.19360000000003 91.64944000000001 210.40320000000003Z" fill="#9a9a9a"/> <path d="M112.87472000000001 205.76640000000003V206.75424H118.31792V205.76640000000003ZM115.07216000000001 206.04864000000003V215.04000000000002H116.12048V206.04864000000003Z" fill="#9a9a9a"/> <path d="M133.62784000000002 206.67360000000002 133.72864 205.06080000000003 126.63232 214.13280000000003 126.53152 215.74560000000002ZM127.57984 205.76640000000003H126.53152V215.74560000000002L127.57984 214.25376000000003ZM133.72864 205.06080000000003 132.68032 206.55264000000003V215.04000000000002H133.72864Z" fill="#9a9a9a"/> <path d="M152.78832 215.04000000000002H153.97776000000002L151.55856 205.06080000000003L150.99408 206.95584000000002ZM147.56688 214.13280000000003 147.92976000000002 215.66496 151.65936 207.31872 151.55856 205.06080000000003ZM147.92976000000002 215.66496 148.29264 214.13280000000003 144.36144000000002 205.06080000000003 144.26064 207.31872ZM141.94224 215.04000000000002H143.15184L144.92592000000002 206.95584000000002L144.36144000000002 205.06080000000003Z" fill="#9a9a9a"/>
  </g>
</svg>